HIERARCHY
ROOT Hips
{
	OFFSET	0.00	0.00	0.00
	CHANNELS 6 Xposition Yposition Zposition Zrotation Xrotation Yrotation
	JOINT Spine
	{
		OFFSET	 0.00	0.01	 0.00
		CHANNELS 3 Zrotation Xrotation Yrotation
		JOINT Spine1
		{
			OFFSET	 0.00	 2.45913012437421	 0.00
			CHANNELS 3 Zrotation Xrotation Yrotation
            JOINT Neck
            {
                OFFSET	 0.00	 2.48462964506057	 0.00
                CHANNELS 3 Zrotation Xrotation Yrotation
                JOINT Head
                {
                    OFFSET	 0.00	 0.927524780924562	 0.00
                    CHANNELS 3 Zrotation Xrotation Yrotation
                    End Site 
                    {
                        OFFSET	 0.00	 1.14999962169752	 0.00
                    }
                }
            }
			JOINT LeftShoulder
			{
				OFFSET	 0.00	 2.48462964506057	 0.00
				CHANNELS 3 Zrotation Xrotation Yrotation
				JOINT LeftUpArm
				{
					OFFSET	 0.00	 1.24881979654096	 0.00
					CHANNELS 3 Zrotation Xrotation Yrotation
					JOINT LeftForeArm
					{
						OFFSET	 0.00	2.59758046908119	 0.00
						CHANNELS 3 Zrotation Xrotation Yrotation
						JOINT LeftHand
						{
							OFFSET	 0.00	2.45542024364365	 0.00
							CHANNELS 3 Zrotation Xrotation Yrotation
							JOINT LeftHandThumb 
							{
								OFFSET	 0.00	0.00	 0.00
								CHANNELS 3 Zrotation Xrotation Yrotation
								End Site
								{
									OFFSET	 0.00	0.00	1.00000003353624
								}
							}
							JOINT L_Wrist_End 
							{
								OFFSET	 0.00	0.99999967115358	 0.00
								CHANNELS 3 Zrotation Xrotation Yrotation
								End Site 
								{
									OFFSET	 0.00	 0.00	 0.00
								}
							}
						}
					}
				}
			}
			JOINT RightShoulder
			{
				OFFSET	 0.00	 2.48462964506057	 0.00
				CHANNELS 3 Zrotation Xrotation Yrotation
				JOINT RightUpArm
				{
					OFFSET	 0.00	 1.24881979654096	 0.00
					CHANNELS 3 Zrotation Xrotation Yrotation
					JOINT RightForeArm
					{
						OFFSET	 0.00	2.59758046908119	 0.00
						CHANNELS 3 Zrotation Xrotation Yrotation
						JOINT RightHand
						{
							OFFSET	 0.00	2.45542024364365	 0.00
							CHANNELS 3 Zrotation Xrotation Yrotation
							JOINT RightHandThumb 
							{
								OFFSET	 0.00	0.00	 0.00
								CHANNELS 3 Zrotation Xrotation Yrotation
								End Site
								{
									OFFSET	 0.00	0.00	1.00000003353624
								}
							}
							JOINT R_Wrist_End 
							{
								OFFSET	 0.00	0.99999967115358	 0.00
								CHANNELS 3 Zrotation Xrotation Yrotation
								End Site 
								{
									OFFSET	 0.00	 0.00	 0.00
								}
							}
						}
					}
				}
			}
		}
	}
	JOINT LeftUpLeg
	{
		OFFSET	 1.2719394002717	 0.00	 0.00
		CHANNELS 3 Zrotation Xrotation Yrotation
		JOINT LeftLowLeg
		{
			OFFSET	 0.00	-4.3429100912261	 0.00
			CHANNELS 3 Zrotation Xrotation Yrotation
			JOINT LeftFoot
			{
				OFFSET	 0.00	-4.48767017425826	 0.00
				CHANNELS 3 Zrotation Xrotation Yrotation
				JOINT LeftToeBase
                {
                    OFFSET	 0.00	0.00	 1.51507020887566
                    CHANNELS 3 Zrotation Xrotation Yrotation
                    End Site 
                    {
                        OFFSET	 0.00	0.00	 0.75000010571191
                    }
                }
			}
		}
	}
	JOINT RightUpLeg
	{
		OFFSET	 -1.2719393604653	 0.00	 0.00
		CHANNELS 3 Zrotation Xrotation Yrotation
		JOINT RightLowLeg
		{
			OFFSET	 0.00	-4.3429100912261	 0.00
			CHANNELS 3 Zrotation Xrotation Yrotation
			JOINT RightFoot
			{
				OFFSET	 0.00	-4.48767017425826	 0.00
				CHANNELS 3 Zrotation Xrotation Yrotation
				JOINT RightToeBase
                {
                    OFFSET	 0.00	0.00	 1.51507020887566
                    CHANNELS 3 Zrotation Xrotation Yrotation
                    End Site 
                    {
                        OFFSET	 0.00	0.00	 0.749999965609858
                    }
                }   
			}
		}
	}
}
MOTION 
Frames:	11 
Frame Time: 0.02 
 -1.4531900024414062 3.8853799438476564 10.473299560546875 -65.6028 85.1472 65.4238 1.48336 -18.3375 -1.87614 8.70617 30.4843 0.139256 -25.2373 24.3529 27.1719 37.725 -58.6265 44.6994 -125.096695 2.49438 -8.82442 -35.6875 -2.04776 38.4412 0.0 28.8307 0.0 7.67403 -6.63109 0.0474307 0.0 0.0 0.0 0.0 0.0 0.0 115.5514 -1.10826 2.90567 37.6458 3.78107 -25.0609 0.0 26.805 0.0 -6.22927 0.307266 6.91574 0.0 0.0 0.0 0.0 0.0 0.0 5.05679 8.69795 16.6243 0.0 6.13062 0.0 -8.1842 5.49753 8.57128 0.0 -10.242229 0.0 7.17013 7.11449 12.6011 0.0 7.55279 0.0 18.4587 7.08091 -25.8072 0.0 -11.2479 0.0 
  -1.4592100524902343 3.884280090332031 10.4747998046875 -65.0304 85.1031 64.7888 1.30477 -18.3545 -2.09319 8.82333 30.6989 0.00207818 -23.5834 25.2513 24.1006 36.6638 -58.824 42.0026 -124.9887 2.55819 -9.01115 -35.7373 -2.04368 38.3783 0.0 29.0088 0.0 7.61468 -6.69403 0.0814489 0.0 0.0 0.0 0.0 0.0 0.0 115.5293 -1.04356 2.84323 37.6605 3.96726 -24.9917 0.0 26.759 0.0 -6.36129 0.467871 7.04787 0.0 0.0 0.0 0.0 0.0 0.0 5.14657 8.57399 16.5101 0.0 6.55327 0.0 -8.24152 5.37006 8.7543 0.0 -10.28111 0.0 7.23287 7.09956 12.7748 0.0 7.72419 0.0 18.5462 7.05419 -25.8601 0.0 -11.3074 0.0 
  -1.4659300231933594 3.8844000244140626 10.476400146484375 -64.6995 85.0643 64.4079 0.999033 -18.3652 -2.43829 9.13384 30.9162 -0.093344 -21.7642 26.273 20.6404 35.3893 -59.088 39.2927 -125.0455 2.59658 -8.94757 -35.6821 -1.81733 38.2807 0.0 29.1899 0.0 7.62173 -6.61077 0.208135 0.0 0.0 0.0 0.0 0.0 0.0 115.3811 -0.995281 2.86324 37.7168 4.10026 -24.9424 0.0 26.7549 0.0 -6.36823 0.477285 6.92484 0.0 0.0 0.0 0.0 0.0 0.0 5.24551 8.42396 16.431 0.0 6.96246 0.0 -8.29394 5.25296 8.89576 0.0 -10.32785 0.0 7.30856 7.04898 13.0192 0.0 7.90995 0.0 18.6539 7.00847 -25.9768 0.0 -11.356461 0.0 
  -1.4733999633789063 3.887040100097656 10.47780029296875 -64.8355 85.0234 64.5009 0.735251 -18.4029 -2.72627 9.37102 31.1646 -0.19951 -19.532 27.3068 16.6458 34.1241 -59.4142 36.5018 -125.0724 2.66021 -8.98794 -35.5679 -1.61493 38.2212 0.0 29.4007 0.0 7.67714 -6.55211 0.430396 0.0 0.0 0.0 0.0 0.0 0.0 115.291 -0.970714 2.98265 37.768 4.23544 -25.0666 0.0 26.7654 0.0 -6.30756 0.360506 6.84585 0.0 0.0 0.0 0.0 0.0 0.0 5.36364 8.21441 16.3115 0.0 7.38682 0.0 -8.32092 5.11714 9.09024 0.0 -10.34464 0.0 7.40547 6.95433 13.1014 0.0 8.07927 0.0 18.6971 7.0209 -26.0058 0.0 -11.39865 0.0 
  -1.4811599731445313 3.890469970703125 10.479000244140625 -65.1087 85.0101 64.7068 0.531877 -18.5435 -2.91618 9.45859 31.5357 -0.346793 -17.212 27.9202 12.6042 32.8217 -59.6972 33.0849 -124.9858 2.73615 -9.08636 -35.4745 -1.39346 38.0908 0.0 29.5987 0.0 7.72788 -6.45657 0.498361 0.0 0.0 0.0 0.0 0.0 0.0 115.148895 -0.813784 3.13387 37.9895 4.2646 -25.1254 0.0 26.7296 0.0 -6.29024 0.455384 6.68916 0.0 0.0 0.0 0.0 0.0 0.0 5.45747 7.99196 16.2323 0.0 7.796 0.0 -8.35584 5.00068 9.27108 0.0 -10.38246 0.0 7.47818 6.81124 13.1387 0.0 8.26891 0.0 18.6895 7.06168 -25.9918 0.0 -11.46029 0.0 
  -1.4899400329589845 3.8890499877929687 10.48010009765625 -64.2233 84.9467 63.7674 0.385845 -18.5452 -3.00708 9.3933 31.7298 -0.436084 -14.3851 28.8473 8.00881 31.764 -60.0322 30.4693 -124.9094 2.82497 -8.97136 -35.2689 -1.17164 37.7926 0.0 29.8077 0.0 7.87037 -6.36854 0.393445 0.0 0.0 0.0 0.0 0.0 0.0 115.197 -0.799951 3.11973 38.0967 4.3645 -25.2089 0.0 26.7075 0.0 -6.17139 0.358699 6.67601 0.0 0.0 0.0 0.0 0.0 0.0 5.55008 7.96359 16.1887 0.0 8.08813 0.0 -8.38019 4.9383 9.39456 0.0 -10.46146 0.0 7.55339 6.8501 13.0037 0.0 8.38426 0.0 18.6006 7.14926 -25.891 0.0 -11.50371 0.0 
  -1.4966000366210936 3.888179931640625 10.481099853515625 -63.6039 84.9546 63.1515 0.308578 -18.6581 -2.99265 9.12039 32.0013 -0.584502 -11.2249 29.4924 3.16938 30.8607 -60.3538 27.9761 -124.7169 2.92687 -8.96945 -35.0693 -0.974834 37.5113 0.0 29.9956 0.0 8.14295 -6.33495 0.784108 0.0 0.0 0.0 0.0 0.0 0.0 115.3216 -0.771655 3.20596 38.2322 4.44458 -25.4399 0.0 26.6749 0.0 -6.09205 0.307813 6.60051 0.0 0.0 0.0 0.0 0.0 0.0 5.57986 7.88741 16.1003 0.0 8.33367 0.0 -8.43129 4.9097996 9.49746 0.0 -10.49277 0.0 7.55948 6.86407 12.7375 0.0 8.44118 0.0 18.4772 7.235 -25.7356 0.0 -11.44729 0.0 
  -1.5007000732421876 3.8927301025390624 10.48199951171875 -63.0511 84.9858 62.7854 0.383635 -18.7505 -2.86094 8.52797 32.2843 -0.901023 -7.93627 29.8995 -1.57084 30.5466 -60.7472 26.0562 -124.43 3.04704 -9.14487 -34.7556 -0.829996 37.2087 0.0 30.1987 0.0 8.27931 -6.20987 0.581636 0.0 0.0 0.0 0.0 0.0 0.0 115.580795 -0.655131 3.27568 38.4329 4.53522 -25.6296 0.0 26.5707 0.0 -5.98952 0.330649 6.51075 0.0 0.0 0.0 0.0 0.0 0.0 5.60388 7.66939 15.665 0.0 8.68541 0.0 -8.46276 4.8438997 9.74559 0.0 -10.55713 0.0 7.54638 6.85053 12.2512 0.0 8.4596 0.0 18.3531 7.33732 -25.5291 0.0 -11.44473 0.0 
  -1.5058000183105469 3.9076800537109375 10.481199951171876 -63.7154 85.0487 63.1662 0.723034 -18.7875 -2.2923 7.64032 32.5245 -1.00254 -4.50209 30.0141 -6.23589 30.5142 -61.118 24.7105 -124.026505 3.1963 -9.3837 -34.4827 -0.661875 36.7803 0.0 30.3291 0.0 8.4049 -6.06251 1.18379 0.0 0.0 0.0 0.0 0.0 0.0 116.024704 -0.490252 3.48817 38.5245 4.58655 -25.9895 0.0 26.5511 0.0 -5.85501 0.21816 6.56872 0.0 0.0 0.0 0.0 0.0 0.0 5.58785 7.42984 15.7632 0.0 8.97353 0.0 -8.48818 4.7395 9.92408 0.0 -10.529221 0.0 7.53303 6.55908 12.448 0.0 8.71348 0.0 18.347 7.26455 -25.4284 0.0 -11.45321 0.0 
  -1.5091000366210938 3.9098300170898437 10.481300048828125 -63.5933 85.056 63.0239 1.1855 -18.9683 -1.67067 6.55148 32.9013 -1.30006 -1.14409 30.0283 -10.5109 30.8537 -61.3106 23.7993 -123.4279 3.30962 -9.61667 -34.2752 -0.526009 36.3397 0.0 30.4384 0.0 8.68298 -6.07079 0.96245 0.0 0.0 0.0 0.0 0.0 0.0 116.5258 -0.383776 3.5383 38.7332 4.65427 -26.1893 0.0 26.4703 0.0 -5.82021 0.49605 6.64632 0.0 0.0 0.0 0.0 0.0 0.0 5.5969 7.38084 15.6825 0.0 9.06864 0.0 -8.42708 4.7591 10.0442 0.0 -10.648399 0.0 7.53786 6.55836 12.4456 0.0 8.70187 0.0 18.3329 7.26202 -25.4245 0.0 -11.4079 0.0 
  -1.5102000427246094 3.912349853515625 10.481099853515625 -63.0484 85.067 62.4081 1.82529 -19.1693 -0.841133 5.21149 33.3881 -1.64215 2.1607 29.6951 -14.5678 31.1674 -61.344 23.0955 -122.6873 3.39428 -9.75486 -34.1023 -0.291206 35.7275 0.0 30.544 0.0 8.81481 -5.99699 0.877048 0.0 0.0 0.0 0.0 0.0 0.0 117.1723 -0.212808 3.69721 38.8682 4.67622 -26.5889 0.0 26.5209 0.0 -5.68479 0.424415 6.5962 0.0 0.0 0.0 0.0 0.0 0.0 5.55331 7.43974 15.7656 0.0 9.0231 0.0 -8.40455 4.8 10.0553 0.0 -10.65866 0.0 7.50145 6.59326 12.5056 0.0 8.68711 0.0 18.3375 7.22895 -25.4127 0.0 -11.38537 0.0 
